<svg width="1242.188" height="117.627" viewBox="0 0 1242.188 117.627" xmlns="http://www.w3.org/2000/svg">
	<g id="svgGroup" stroke-linecap="round" fill-rule="evenodd" font-size="9pt" stroke="#000" stroke-width="0.25mm" fill="none" style="stroke:#000;stroke-width:0.25mm;fill:none">
		<path d="M 64.526 58.447 L 7.617 86.353 A 8.002 8.002 0 0 1 6.506 86.813 Q 5.883 87.015 5.304 87.067 A 4.428 4.428 0 0 1 4.907 87.085 Q 2.883 87.085 1.424 84.877 A 9.826 9.826 0 0 1 0.879 83.936 A 10.677 10.677 0 0 1 0.388 82.804 Q 0.182 82.236 0.085 81.723 A 4.677 4.677 0 0 1 0 80.86 Q 0 78.697 2.403 77.297 A 9.225 9.225 0 0 1 3.003 76.978 L 52.222 53.394 L 3.003 29.81 A 7.899 7.899 0 0 1 1.654 28.991 Q 0.943 28.446 0.538 27.803 A 3.444 3.444 0 0 1 0 25.928 Q 0 24.961 0.473 23.758 A 11.143 11.143 0 0 1 0.879 22.852 A 8.973 8.973 0 0 1 1.735 21.474 Q 2.266 20.782 2.866 20.36 A 3.477 3.477 0 0 1 4.907 19.702 Q 6.012 19.702 7.29 20.279 A 9.126 9.126 0 0 1 7.617 20.435 L 64.526 48.34 Q 66.358 49.219 67.163 50.391 Q 67.911 51.479 67.965 53.136 A 8.01 8.01 0 0 1 67.969 53.394 A 6.836 6.836 0 0 1 67.856 54.674 Q 67.667 55.664 67.163 56.397 A 4.813 4.813 0 0 1 66.282 57.35 Q 65.571 57.946 64.526 58.447 Z" id="0" vector-effect="non-scaling-stroke"/>
		<path d="M 246.533 19.116 L 241.26 19.116 L 241.26 86.133 L 246.533 86.133 A 8.608 8.608 0 0 1 247.788 86.218 Q 248.426 86.312 248.932 86.511 A 3.107 3.107 0 0 1 250.086 87.268 Q 251.148 88.403 251.148 91.113 A 10.913 10.913 0 0 1 251.073 92.442 Q 250.865 94.125 250.086 94.959 A 3.105 3.105 0 0 1 248.935 95.714 Q 247.973 96.094 246.534 96.094 L 223.535 96.094 A 8.608 8.608 0 0 1 222.28 96.009 Q 221.643 95.915 221.137 95.716 A 3.107 3.107 0 0 1 219.983 94.959 Q 218.921 93.823 218.921 91.113 A 10.913 10.913 0 0 1 218.996 89.785 Q 219.203 88.102 219.983 87.268 A 3.105 3.105 0 0 1 221.133 86.512 Q 222.095 86.133 223.535 86.133 L 230.274 86.133 L 230.274 56.25 L 193.799 56.25 L 193.799 86.133 L 200.537 86.133 A 8.608 8.608 0 0 1 201.792 86.218 Q 202.43 86.312 202.936 86.511 A 3.107 3.107 0 0 1 204.089 87.268 Q 205.151 88.403 205.151 91.113 A 10.913 10.913 0 0 1 205.077 92.442 Q 204.869 94.125 204.089 94.959 A 3.105 3.105 0 0 1 202.939 95.714 Q 201.977 96.094 200.538 96.094 L 177.539 96.094 A 8.608 8.608 0 0 1 176.284 96.009 Q 175.646 95.915 175.141 95.716 A 3.107 3.107 0 0 1 173.987 94.959 Q 172.925 93.823 172.925 91.113 A 10.913 10.913 0 0 1 173 89.785 Q 173.207 88.102 173.987 87.268 A 3.105 3.105 0 0 1 175.137 86.512 Q 176.099 86.133 177.538 86.133 L 182.813 86.133 L 182.813 19.116 L 177.539 19.116 A 8.608 8.608 0 0 1 176.284 19.031 Q 175.646 18.937 175.141 18.738 A 3.107 3.107 0 0 1 173.987 17.981 Q 172.925 16.846 172.925 14.136 A 10.913 10.913 0 0 1 173 12.807 Q 173.207 11.124 173.987 10.291 A 3.105 3.105 0 0 1 175.137 9.535 Q 176.099 9.155 177.538 9.155 L 200.537 9.155 A 8.608 8.608 0 0 1 201.792 9.24 Q 202.43 9.335 202.936 9.534 A 3.107 3.107 0 0 1 204.089 10.291 Q 205.151 11.426 205.151 14.136 A 10.913 10.913 0 0 1 205.077 15.464 Q 204.869 17.147 204.089 17.981 A 3.105 3.105 0 0 1 202.939 18.737 Q 201.977 19.116 200.538 19.116 L 193.799 19.116 L 193.799 46.289 L 230.274 46.289 L 230.274 19.116 L 223.535 19.116 A 8.608 8.608 0 0 1 222.28 19.031 Q 221.643 18.937 221.137 18.738 A 3.107 3.107 0 0 1 219.983 17.981 Q 218.921 16.846 218.921 14.136 A 10.913 10.913 0 0 1 218.996 12.807 Q 219.203 11.124 219.983 10.291 A 3.105 3.105 0 0 1 221.133 9.535 Q 222.095 9.155 223.535 9.155 L 246.533 9.155 A 8.608 8.608 0 0 1 247.788 9.24 Q 248.426 9.335 248.932 9.534 A 3.107 3.107 0 0 1 250.086 10.291 Q 251.148 11.426 251.148 14.136 A 10.913 10.913 0 0 1 251.073 15.464 Q 250.865 17.147 250.086 17.981 A 3.105 3.105 0 0 1 248.935 18.737 Q 247.973 19.116 246.534 19.116 Z" id="2" vector-effect="non-scaling-stroke"/>
		<path d="M 332.3 64.966 L 279.273 64.966 A 33.526 33.526 0 0 0 280.197 71.556 Q 281.164 75.407 283.093 78.322 A 17.767 17.767 0 0 0 285.754 81.482 A 19.486 19.486 0 0 0 293.762 85.935 Q 296.709 86.797 300.228 87.013 A 39.377 39.377 0 0 0 302.637 87.085 Q 309.375 87.085 315.967 85.364 A 53.259 53.259 0 0 0 322.516 83.215 A 41.137 41.137 0 0 0 327.539 80.786 A 6.799 6.799 0 0 1 328.424 80.391 Q 329.161 80.127 329.81 80.127 Q 332.373 80.127 333.984 84.009 Q 334.524 85.269 334.622 86.332 A 5.029 5.029 0 0 1 334.644 86.792 A 4.5 4.5 0 0 1 332.831 90.445 A 7.851 7.851 0 0 1 331.421 91.333 A 49.302 49.302 0 0 1 325.269 93.915 Q 322.144 94.996 318.57 95.836 A 80.595 80.595 0 0 1 318.091 95.947 A 69.148 69.148 0 0 1 302.637 97.705 A 48.2 48.2 0 0 1 293.879 96.949 Q 288.534 95.962 284.167 93.684 A 30.27 30.27 0 0 1 283.74 93.457 Q 275.903 89.209 271.802 81.226 A 35.956 35.956 0 0 1 268.485 71.294 A 49.537 49.537 0 0 1 267.7 62.256 A 41.737 41.737 0 0 1 268.924 51.954 A 34.289 34.289 0 0 1 272.168 43.726 Q 276.636 35.669 284.546 31.238 A 34.82 34.82 0 0 1 297.989 27.05 A 43.411 43.411 0 0 1 302.637 26.807 Q 313.257 26.807 320.764 31.091 A 29.173 29.173 0 0 1 332.3 42.957 A 39.19 39.19 0 0 1 336.159 54.185 A 49.703 49.703 0 0 1 336.914 60.425 Q 336.914 62.698 336.03 63.75 A 2.5 2.5 0 0 1 335.852 63.941 Q 334.79 64.966 332.3 64.966 Z M 280.005 54.712 L 324.756 54.712 A 25.744 25.744 0 0 0 322.969 48.794 A 18.321 18.321 0 0 0 317.688 41.858 Q 312.829 37.965 304.889 37.492 A 37.925 37.925 0 0 0 302.637 37.427 A 29.131 29.131 0 0 0 295.861 38.175 A 21.045 21.045 0 0 0 287.732 42.005 Q 281.836 46.582 280.005 54.712 Z" id="3" vector-effect="non-scaling-stroke"/>
		<path d="M 398.438 4.981 L 398.438 86.133 L 421.948 86.133 A 8.608 8.608 0 0 1 423.203 86.218 Q 423.841 86.312 424.347 86.511 A 3.107 3.107 0 0 1 425.501 87.268 Q 426.563 88.403 426.563 91.113 A 10.913 10.913 0 0 1 426.488 92.442 Q 426.281 94.125 425.501 94.959 A 3.105 3.105 0 0 1 424.35 95.714 Q 423.388 96.094 421.949 96.094 L 364.526 96.094 A 8.608 8.608 0 0 1 363.271 96.009 Q 362.634 95.915 362.128 95.716 A 3.107 3.107 0 0 1 360.974 94.959 Q 359.912 93.823 359.912 91.113 A 10.913 10.913 0 0 1 359.987 89.785 Q 360.194 88.102 360.974 87.268 A 3.105 3.105 0 0 1 362.124 86.512 Q 363.087 86.133 364.526 86.133 L 387.451 86.133 L 387.451 9.961 L 367.456 9.961 A 8.608 8.608 0 0 1 366.201 9.876 Q 365.563 9.782 365.058 9.583 A 3.107 3.107 0 0 1 363.904 8.826 Q 362.842 7.691 362.842 4.981 A 10.913 10.913 0 0 1 362.917 3.652 Q 363.124 1.969 363.904 1.135 A 3.105 3.105 0 0 1 365.054 0.38 Q 366.016 0 367.455 0 L 393.823 0 A 8.608 8.608 0 0 1 395.078 0.085 Q 395.716 0.179 396.222 0.378 A 3.107 3.107 0 0 1 397.376 1.135 Q 398.438 2.271 398.438 4.981 Z" id="4" vector-effect="non-scaling-stroke"/>
		<path d="M 488.379 4.981 L 488.379 86.133 L 511.89 86.133 A 8.608 8.608 0 0 1 513.145 86.218 Q 513.782 86.312 514.288 86.511 A 3.107 3.107 0 0 1 515.442 87.268 Q 516.504 88.403 516.504 91.113 A 10.913 10.913 0 0 1 516.429 92.442 Q 516.222 94.125 515.442 94.959 A 3.105 3.105 0 0 1 514.292 95.714 Q 513.33 96.094 511.89 96.094 L 454.468 96.094 A 8.608 8.608 0 0 1 453.213 96.009 Q 452.575 95.915 452.069 95.716 A 3.107 3.107 0 0 1 450.916 94.959 Q 449.854 93.823 449.854 91.113 A 10.913 10.913 0 0 1 449.929 89.785 Q 450.136 88.102 450.916 87.268 A 3.105 3.105 0 0 1 452.066 86.512 Q 453.028 86.133 454.467 86.133 L 477.393 86.133 L 477.393 9.961 L 457.398 9.961 A 8.608 8.608 0 0 1 456.143 9.876 Q 455.505 9.782 454.999 9.583 A 3.107 3.107 0 0 1 453.845 8.826 Q 452.783 7.691 452.783 4.981 A 10.913 10.913 0 0 1 452.858 3.652 Q 453.065 1.969 453.845 1.135 A 3.105 3.105 0 0 1 454.996 0.38 Q 455.958 0 457.397 0 L 483.765 0 A 8.608 8.608 0 0 1 485.02 0.085 Q 485.657 0.179 486.163 0.378 A 3.107 3.107 0 0 1 487.317 1.135 Q 488.379 2.271 488.379 4.981 Z" id="5" vector-effect="non-scaling-stroke"/>
		<path d="M 583.572 28.581 A 38.118 38.118 0 0 0 571.802 26.807 Q 561.768 26.807 553.711 31.348 A 32.727 32.727 0 0 0 541.077 43.982 A 34.241 34.241 0 0 0 538.113 50.902 A 38.844 38.844 0 0 0 536.499 62.256 A 43.236 43.236 0 0 0 536.611 65.386 A 35.581 35.581 0 0 0 541.077 80.53 A 32.727 32.727 0 0 0 553.711 93.164 A 34.263 34.263 0 0 0 560.032 95.931 A 38.118 38.118 0 0 0 571.802 97.705 Q 581.836 97.705 589.893 93.164 A 32.727 32.727 0 0 0 602.527 80.53 A 34.241 34.241 0 0 0 605.491 73.61 A 38.844 38.844 0 0 0 607.105 62.256 A 43.236 43.236 0 0 0 606.993 59.126 A 35.581 35.581 0 0 0 602.527 43.982 A 32.727 32.727 0 0 0 589.893 31.348 A 34.263 34.263 0 0 0 583.572 28.581 Z M 571.802 37.647 A 27.523 27.523 0 0 0 565.128 38.425 A 22.346 22.346 0 0 0 559.314 40.759 A 21.195 21.195 0 0 0 551.001 49.475 A 25.701 25.701 0 0 0 548.303 58.343 A 32.207 32.207 0 0 0 548.071 62.256 A 30.051 30.051 0 0 0 548.898 69.438 A 24.782 24.782 0 0 0 551.001 75.037 A 21.195 21.195 0 0 0 559.314 83.753 A 23.096 23.096 0 0 0 567.942 86.619 A 29.43 29.43 0 0 0 571.802 86.865 A 27.523 27.523 0 0 0 578.476 86.087 A 22.346 22.346 0 0 0 584.29 83.753 A 21.195 21.195 0 0 0 592.603 75.037 A 25.701 25.701 0 0 0 595.301 66.169 A 32.207 32.207 0 0 0 595.532 62.256 A 30.051 30.051 0 0 0 594.705 55.074 A 24.782 24.782 0 0 0 592.603 49.475 A 21.195 21.195 0 0 0 584.29 40.759 A 23.096 23.096 0 0 0 575.662 37.893 A 29.43 29.43 0 0 0 571.802 37.647 Z" id="6" vector-effect="non-scaling-stroke"/>
		<path d="M 671.118 79.175 L 655.591 114.624 A 4.506 4.506 0 0 1 653.002 117.032 Q 652.119 117.384 650.982 117.528 A 13.492 13.492 0 0 1 649.292 117.627 A 11.243 11.243 0 0 1 647.433 117.487 Q 644.019 116.912 644.019 113.965 A 2.111 2.111 0 0 1 644.026 113.809 Q 644.045 113.557 644.116 113.095 A 27.193 27.193 0 0 1 644.165 112.793 L 651.05 77.49 Q 651.343 76.099 652.332 75.33 A 3.55 3.55 0 0 1 653.782 74.669 A 5.083 5.083 0 0 1 654.859 74.561 L 669.067 74.561 A 3.559 3.559 0 0 1 669.822 74.636 Q 670.529 74.789 670.972 75.256 A 2.374 2.374 0 0 1 671.599 76.59 A 3.265 3.265 0 0 1 671.631 77.051 A 4.559 4.559 0 0 1 671.431 78.361 A 5.976 5.976 0 0 1 671.118 79.175 Z" id="7" vector-effect="non-scaling-stroke"/>
		<path d="M 882.715 19.116 L 878.76 19.116 L 868.652 92.944 Q 868.286 95.581 866.785 96.643 Q 865.283 97.705 862.354 97.705 Q 856.348 97.705 854.883 92.944 L 841.333 50.391 L 827.637 92.944 Q 826.099 97.705 820.02 97.705 Q 818.187 97.705 816.913 97.253 A 4.846 4.846 0 0 1 815.662 96.607 A 3.947 3.947 0 0 1 814.407 95.026 Q 814.005 94.146 813.867 92.944 L 804.126 19.116 L 800.537 19.116 A 8.608 8.608 0 0 1 799.282 19.031 Q 798.645 18.937 798.139 18.738 A 3.107 3.107 0 0 1 796.985 17.981 Q 795.923 16.846 795.923 14.136 A 10.913 10.913 0 0 1 795.998 12.807 Q 796.205 11.124 796.985 10.291 A 3.105 3.105 0 0 1 798.135 9.535 Q 799.097 9.155 800.537 9.155 L 825.733 9.155 A 8.608 8.608 0 0 1 826.988 9.24 Q 827.625 9.335 828.131 9.534 A 3.107 3.107 0 0 1 829.285 10.291 Q 830.347 11.426 830.347 14.136 A 10.913 10.913 0 0 1 830.272 15.464 Q 830.065 17.147 829.285 17.981 A 3.105 3.105 0 0 1 828.135 18.737 Q 827.172 19.116 825.733 19.116 L 815.039 19.116 L 822.363 77.783 L 836.133 34.717 Q 836.902 32.136 839.482 31.49 A 7.933 7.933 0 0 1 841.406 31.275 A 12.08 12.08 0 0 1 842.767 31.346 Q 843.415 31.42 843.953 31.57 A 4.716 4.716 0 0 1 845.032 32.007 Q 846.314 32.739 846.753 34.204 L 860.449 77.783 L 868.067 19.116 L 858.984 19.116 A 8.608 8.608 0 0 1 857.729 19.031 Q 857.092 18.937 856.586 18.738 A 3.107 3.107 0 0 1 855.432 17.981 Q 854.37 16.846 854.37 14.136 A 10.913 10.913 0 0 1 854.445 12.807 Q 854.652 11.124 855.432 10.291 A 3.105 3.105 0 0 1 856.582 9.535 Q 857.545 9.155 858.984 9.155 L 882.715 9.155 A 8.608 8.608 0 0 1 883.97 9.24 Q 884.608 9.335 885.114 9.534 A 3.107 3.107 0 0 1 886.267 10.291 Q 887.329 11.426 887.329 14.136 A 10.913 10.913 0 0 1 887.254 15.464 Q 887.047 17.147 886.267 17.981 A 3.105 3.105 0 0 1 885.117 18.737 Q 884.155 19.116 882.716 19.116 Z" id="9" vector-effect="non-scaling-stroke"/>
		<path d="M 943.338 28.581 A 38.118 38.118 0 0 0 931.567 26.807 Q 921.533 26.807 913.477 31.348 A 32.727 32.727 0 0 0 900.842 43.982 A 34.241 34.241 0 0 0 897.879 50.902 A 38.844 38.844 0 0 0 896.265 62.256 A 43.236 43.236 0 0 0 896.377 65.386 A 35.581 35.581 0 0 0 900.842 80.53 A 32.727 32.727 0 0 0 913.477 93.164 A 34.263 34.263 0 0 0 919.797 95.931 A 38.118 38.118 0 0 0 931.567 97.705 Q 941.602 97.705 949.658 93.164 A 32.727 32.727 0 0 0 962.293 80.53 A 34.241 34.241 0 0 0 965.256 73.61 A 38.844 38.844 0 0 0 966.87 62.256 A 43.236 43.236 0 0 0 966.758 59.126 A 35.581 35.581 0 0 0 962.293 43.982 A 32.727 32.727 0 0 0 949.658 31.348 A 34.263 34.263 0 0 0 943.338 28.581 Z M 931.567 37.647 A 27.523 27.523 0 0 0 924.893 38.425 A 22.346 22.346 0 0 0 919.08 40.759 A 21.195 21.195 0 0 0 910.767 49.475 A 25.701 25.701 0 0 0 908.069 58.343 A 32.207 32.207 0 0 0 907.837 62.256 A 30.051 30.051 0 0 0 908.664 69.438 A 24.782 24.782 0 0 0 910.767 75.037 A 21.195 21.195 0 0 0 919.08 83.753 A 23.096 23.096 0 0 0 927.707 86.619 A 29.43 29.43 0 0 0 931.567 86.865 A 27.523 27.523 0 0 0 938.242 86.087 A 22.346 22.346 0 0 0 944.055 83.753 A 21.195 21.195 0 0 0 952.368 75.037 A 25.701 25.701 0 0 0 955.066 66.169 A 32.207 32.207 0 0 0 955.298 62.256 A 30.051 30.051 0 0 0 954.471 55.074 A 24.782 24.782 0 0 0 952.368 49.475 A 21.195 21.195 0 0 0 944.055 40.759 A 23.096 23.096 0 0 0 935.428 37.893 A 29.43 29.43 0 0 0 931.567 37.647 Z" id="10" vector-effect="non-scaling-stroke"/>
		<path d="M 1014.404 71.924 L 1014.404 86.133 L 1039.087 86.133 A 8.608 8.608 0 0 1 1040.342 86.218 Q 1040.98 86.312 1041.486 86.511 A 3.107 3.107 0 0 1 1042.639 87.268 Q 1043.701 88.403 1043.701 91.113 A 10.913 10.913 0 0 1 1043.626 92.442 Q 1043.419 94.125 1042.639 94.959 A 3.105 3.105 0 0 1 1041.489 95.714 Q 1040.527 96.094 1039.088 96.094 L 991.919 96.094 A 8.608 8.608 0 0 1 990.664 96.009 Q 990.026 95.915 989.52 95.716 A 3.107 3.107 0 0 1 988.367 94.959 Q 987.305 93.823 987.305 91.113 A 10.913 10.913 0 0 1 987.38 89.785 Q 987.587 88.102 988.367 87.268 A 3.105 3.105 0 0 1 989.517 86.512 Q 990.479 86.133 991.918 86.133 L 1003.418 86.133 L 1003.418 38.379 L 994.116 38.379 A 8.608 8.608 0 0 1 992.861 38.294 Q 992.224 38.2 991.718 38.001 A 3.107 3.107 0 0 1 990.564 37.244 Q 989.502 36.109 989.502 33.399 A 10.913 10.913 0 0 1 989.577 32.07 Q 989.784 30.387 990.564 29.553 A 3.105 3.105 0 0 1 991.714 28.798 Q 992.676 28.418 994.116 28.418 L 1009.058 28.418 A 8.608 8.608 0 0 1 1010.313 28.503 Q 1010.95 28.597 1011.456 28.796 A 3.107 3.107 0 0 1 1012.61 29.553 Q 1013.672 30.689 1013.672 33.399 L 1013.672 48.193 A 47.084 47.084 0 0 1 1021.551 37.525 A 44.316 44.316 0 0 1 1022.168 36.914 A 41.539 41.539 0 0 1 1028.651 31.73 A 35.472 35.472 0 0 1 1032.788 29.443 A 28.646 28.646 0 0 1 1039 27.33 A 23.757 23.757 0 0 1 1043.921 26.807 A 20.736 20.736 0 0 1 1054.614 29.736 A 7.625 7.625 0 0 1 1056.096 30.871 A 4.666 4.666 0 0 1 1057.544 34.277 Q 1057.544 35.596 1056.885 37.354 A 11.95 11.95 0 0 1 1056.156 38.98 Q 1054.754 41.528 1052.637 41.528 Q 1051.538 41.528 1050.586 40.943 A 15.688 15.688 0 0 0 1042.896 38.965 A 20.668 20.668 0 0 0 1034.835 40.665 A 29.177 29.177 0 0 0 1029.639 43.543 A 35.188 35.188 0 0 0 1019.797 53.881 A 41.551 41.551 0 0 0 1018.689 55.737 A 32.511 32.511 0 0 0 1014.404 71.924 Z" id="11" vector-effect="non-scaling-stroke"/>
		<path d="M 1117.969 4.981 L 1117.969 86.133 L 1141.48 86.133 A 8.608 8.608 0 0 1 1142.735 86.218 Q 1143.372 86.312 1143.878 86.511 A 3.107 3.107 0 0 1 1145.032 87.268 Q 1146.094 88.403 1146.094 91.113 A 10.913 10.913 0 0 1 1146.019 92.442 Q 1145.812 94.125 1145.032 94.959 A 3.105 3.105 0 0 1 1143.882 95.714 Q 1142.919 96.094 1141.48 96.094 L 1084.058 96.094 A 8.608 8.608 0 0 1 1082.803 96.009 Q 1082.165 95.915 1081.659 95.716 A 3.107 3.107 0 0 1 1080.505 94.959 Q 1079.443 93.823 1079.443 91.113 A 10.913 10.913 0 0 1 1079.518 89.785 Q 1079.726 88.102 1080.505 87.268 A 3.105 3.105 0 0 1 1081.656 86.512 Q 1082.618 86.133 1084.057 86.133 L 1106.983 86.133 L 1106.983 9.961 L 1086.987 9.961 A 8.608 8.608 0 0 1 1085.732 9.876 Q 1085.095 9.782 1084.589 9.583 A 3.107 3.107 0 0 1 1083.435 8.826 Q 1082.373 7.691 1082.373 4.981 A 10.913 10.913 0 0 1 1082.448 3.652 Q 1082.655 1.969 1083.435 1.135 A 3.105 3.105 0 0 1 1084.585 0.38 Q 1085.548 0 1086.987 0 L 1113.355 0 A 8.608 8.608 0 0 1 1114.61 0.085 Q 1115.247 0.179 1115.753 0.378 A 3.107 3.107 0 0 1 1116.907 1.135 Q 1117.969 2.271 1117.969 4.981 Z" id="12" vector-effect="non-scaling-stroke"/>
		<path d="M 1231.567 4.981 L 1231.567 86.133 L 1237.573 86.133 A 8.608 8.608 0 0 1 1238.828 86.218 Q 1239.466 86.312 1239.972 86.511 A 3.107 3.107 0 0 1 1241.126 87.268 Q 1242.188 88.403 1242.188 91.113 A 10.913 10.913 0 0 1 1242.113 92.442 Q 1241.906 94.125 1241.126 94.959 A 3.105 3.105 0 0 1 1239.975 95.714 Q 1239.013 96.094 1237.574 96.094 L 1225.928 96.094 A 8.608 8.608 0 0 1 1224.673 96.009 Q 1224.035 95.915 1223.529 95.716 A 3.107 3.107 0 0 1 1222.376 94.959 Q 1221.314 93.823 1221.314 91.113 L 1221.314 85.254 A 34.893 34.893 0 0 1 1214.974 91.674 A 30.514 30.514 0 0 1 1210.62 94.483 A 27.865 27.865 0 0 1 1197.363 97.705 A 32.927 32.927 0 0 1 1187.064 96.134 A 29.475 29.475 0 0 1 1181.104 93.421 Q 1173.926 89.136 1169.824 81.116 A 36.549 36.549 0 0 1 1166.4 70.598 A 49.227 49.227 0 0 1 1165.723 62.256 A 48.292 48.292 0 0 1 1166.594 52.862 A 36.078 36.078 0 0 1 1169.824 43.396 Q 1173.926 35.376 1181.104 31.091 A 30.528 30.528 0 0 1 1195.123 26.874 A 37.064 37.064 0 0 1 1197.363 26.807 A 27.617 27.617 0 0 1 1218.073 35.977 A 39.888 39.888 0 0 1 1220.581 38.892 L 1220.581 9.961 L 1208.716 9.961 A 8.608 8.608 0 0 1 1207.461 9.876 Q 1206.823 9.782 1206.317 9.583 A 3.107 3.107 0 0 1 1205.164 8.826 Q 1204.102 7.691 1204.102 4.981 A 10.913 10.913 0 0 1 1204.177 3.652 Q 1204.384 1.969 1205.164 1.135 A 3.105 3.105 0 0 1 1206.314 0.38 Q 1207.276 0 1208.715 0 L 1226.953 0 A 8.608 8.608 0 0 1 1228.208 0.085 Q 1228.846 0.179 1229.352 0.378 A 3.107 3.107 0 0 1 1230.505 1.135 Q 1231.567 2.271 1231.567 4.981 Z M 1198.096 37.647 A 22.841 22.841 0 0 0 1192.431 38.319 A 17.972 17.972 0 0 0 1186.89 40.759 A 19.32 19.32 0 0 0 1180.312 48.25 A 23.552 23.552 0 0 0 1179.749 49.439 A 28.314 28.314 0 0 0 1177.7 56.643 A 37.396 37.396 0 0 0 1177.295 62.256 A 36.482 36.482 0 0 0 1177.871 68.885 A 27.807 27.807 0 0 0 1179.749 75.073 A 20.788 20.788 0 0 0 1183.45 80.818 A 18.742 18.742 0 0 0 1186.89 83.753 A 18.5 18.5 0 0 0 1194.48 86.605 A 24.322 24.322 0 0 0 1198.096 86.865 A 24.744 24.744 0 0 0 1204.955 85.945 A 21.236 21.236 0 0 0 1209.705 83.936 Q 1214.795 81.006 1217.688 75.44 Q 1220.581 69.873 1220.581 62.256 A 33.873 33.873 0 0 0 1220.027 55.983 A 24.881 24.881 0 0 0 1217.688 49.072 Q 1214.795 43.506 1209.705 40.576 A 22.06 22.06 0 0 0 1200.685 37.767 A 27.215 27.215 0 0 0 1198.096 37.647 Z" id="13" vector-effect="non-scaling-stroke"/>
	</g>
</svg>